<svg width="28" height="28" viewBox="0 0 28 28" fill="none" xmlns="http://www.w3.org/2000/svg">
      <path fillRule="evenodd" clipRule="evenodd" d="M14.0229 17.427C13.6831 17.427 13.3358 17.4788 13.0415 17.5929C12.897 17.6488 12.7204 17.737 12.5649 17.8794C12.4088 18.0226 12.2071 18.2874 12.2071 18.6666C12.2071 19.0457 12.4088 19.3106 12.5649 19.4536C12.7204 19.5962 12.897 19.6842 13.0415 19.7402C13.3358 19.8543 13.6831 19.9061 14.0229 19.9061C14.3627 19.9061 14.7099 19.8543 15.0044 19.7402C15.1487 19.6842 15.3253 19.5962 15.4808 19.4536C15.6371 19.3106 15.8388 19.0457 15.8388 18.6666C15.8388 18.2874 15.6371 18.0226 15.4808 17.8794C15.3253 17.737 15.1487 17.6488 15.0044 17.5929C14.7099 17.4788 14.3627 17.427 14.0229 17.427Z"  />
      <path d="M16.3759 14.7541C16.5684 14.4433 16.9486 14.0729 17.519 14.0729C18.0893 14.0729 18.4695 14.4433 18.662 14.7541C18.8628 15.0783 18.9584 15.4714 18.9584 15.8594C18.9584 16.2473 18.8628 16.6404 18.662 16.9646C18.4695 17.2754 18.0893 17.6458 17.519 17.6458C16.9486 17.6458 16.5684 17.2754 16.3759 16.9646C16.1751 16.6404 16.0795 16.2473 16.0795 15.8594C16.0795 15.4714 16.1751 15.0783 16.3759 14.7541Z" fill="black" />
      <path d="M10.5191 14.0729C9.94877 14.0729 9.56856 14.4433 9.37602 14.7541C9.1752 15.0783 9.07956 15.4714 9.07956 15.8594C9.07956 16.2473 9.1752 16.6404 9.37602 16.9646C9.56856 17.2754 9.94877 17.6458 10.5191 17.6458C11.0894 17.6458 11.4696 17.2754 11.6621 16.9646C11.8629 16.6404 11.9586 16.2473 11.9586 15.8594C11.9586 15.4714 11.8629 15.0783 11.6621 14.7541C11.4696 14.4433 11.0894 14.0729 10.5191 14.0729Z" fill="black" />
      <path fillRule="evenodd" clipRule="evenodd" d="M7.11067 4.95834C6.39507 4.95834 5.57041 5.16684 4.9103 5.73553C4.22598 6.32509 3.81506 7.21912 3.81506 8.38543V10.5729L3.81507 10.5764C3.81641 10.9193 3.87463 11.6055 4.07028 12.1791C4.13427 12.3668 4.23651 12.6156 4.40726 12.8401C4.07592 13.4969 3.91889 14.1744 3.84752 14.8278C3.78794 15.3733 3.78714 15.9459 3.79662 16.4746C3.02541 16.7425 2.22691 17.0741 1.85874 17.3118C1.45279 17.574 1.33624 18.1157 1.59841 18.5215C1.86059 18.9275 2.40221 19.0441 2.80815 18.7819C2.94398 18.6942 3.34468 18.5108 3.87179 18.3096C3.95215 18.8685 4.11503 19.3778 4.34246 19.8407C4.16059 19.9541 3.99989 20.0591 3.87205 20.1427C3.82311 20.1747 3.77898 20.2035 3.74033 20.2285C3.33438 20.4906 3.21783 21.0323 3.48 21.4382C3.74217 21.8442 4.2838 21.9608 4.68975 21.6986C4.73773 21.6676 4.78886 21.6342 4.84282 21.599C4.99586 21.4991 5.17169 21.3843 5.36319 21.2669C6.05096 21.9699 6.9051 22.5125 7.79236 22.9206C9.86999 23.8763 12.3305 24.2083 14.0001 24.2083C15.6696 24.2083 18.1302 23.8763 20.2078 22.9206C21.0951 22.5125 21.9492 21.9699 22.637 21.2669C22.8285 21.3843 23.0043 21.4991 23.1573 21.599C23.2113 21.6342 23.2624 21.6676 23.3104 21.6986C23.7164 21.9608 24.2579 21.8442 24.5202 21.4382C24.7823 21.0323 24.6658 20.4906 24.2598 20.2285C24.2212 20.2035 24.1771 20.1747 24.1281 20.1427C24.0002 20.0591 23.8396 19.9541 23.6578 19.8407C23.8852 19.3778 24.0482 18.8685 24.1284 18.3094C24.6558 18.5107 25.0566 18.6942 25.1925 18.7819C25.5984 19.0441 26.1401 18.9275 26.4023 18.5215C26.6644 18.1157 26.5479 17.574 26.142 17.3118C25.7737 17.0741 24.975 16.7424 24.2036 16.4745C24.2131 15.9458 24.2123 15.3732 24.1527 14.8278C24.0814 14.1744 23.9243 13.4969 23.5929 12.8401C23.7637 12.6156 23.8659 12.3668 23.93 12.1791C24.1256 11.6055 24.1838 10.9193 24.1851 10.5764L24.1852 10.5729V8.38556C24.1852 7.21925 23.7742 6.32523 23.09 5.73567C22.4299 5.16697 21.6052 4.95847 20.8896 4.95847C20.4131 4.95847 19.9201 5.14134 19.5227 5.3209C19.1014 5.51125 18.6611 5.75856 18.2651 5.9866C18.1799 6.03563 18.0972 6.08352 18.0168 6.13005L18.0145 6.1314C17.7065 6.30981 17.4332 6.46813 17.1896 6.59363C17.0382 6.67159 16.9208 6.72503 16.8333 6.75741C16.7964 6.77107 16.7728 6.77795 16.7607 6.78117C16.4651 6.77953 16.2766 6.75539 16.0045 6.72052C15.9461 6.71304 15.8838 6.70506 15.8158 6.69671C15.4114 6.64701 14.9009 6.5991 14.0001 6.5991C13.0993 6.5991 12.5889 6.64701 12.1844 6.69671C12.1164 6.70506 12.0542 6.71304 11.9958 6.72052C11.7237 6.75539 11.5353 6.77953 11.2395 6.78117C11.2274 6.77795 11.2039 6.77106 11.167 6.75741C11.0796 6.72503 10.9621 6.67158 10.8107 6.59361C10.5671 6.4681 10.2939 6.30983 9.98581 6.1314C9.90472 6.08444 9.82122 6.03608 9.73521 5.98655C9.3392 5.75849 8.89892 5.51116 8.47762 5.32079C8.08019 5.14122 7.58718 4.95834 7.11067 4.95834ZM7.18892 20.5494C7.57862 20.8433 8.02761 21.1026 8.52372 21.3308C10.3098 22.1523 12.5042 22.4583 14.0001 22.4583C15.496 22.4583 17.6904 22.1523 19.4765 21.3308C19.9726 21.1026 20.4216 20.8433 20.8112 20.5494C20.4001 20.4778 20.0876 20.1192 20.0876 19.6875C20.0876 19.2043 20.4793 18.8125 20.9626 18.8125C21.3443 18.8125 21.7344 18.9079 22.0966 19.0405C22.2816 18.6533 22.3952 18.2292 22.4264 17.765C22.0791 17.6801 21.8392 17.6458 21.7156 17.6458C21.2324 17.6458 20.8406 17.2541 20.8406 16.7708C20.8406 16.2876 21.2324 15.8958 21.7156 15.8958C21.9428 15.8958 22.1998 15.9299 22.4588 15.9803C22.4589 15.6582 22.4484 15.3419 22.4131 15.0178C22.3308 14.2648 22.1177 13.5965 21.6147 13.0022C21.4348 12.7896 21.2111 12.5782 20.9302 12.3719C20.5407 12.086 20.4568 11.5383 20.7429 11.1488C21.0288 10.7593 21.5765 10.6754 21.966 10.9614C22.105 11.0634 22.2363 11.1683 22.3602 11.2759C22.4116 11.0097 22.4344 10.7312 22.4352 10.571V8.38556C22.4352 7.65604 22.1944 7.27401 21.9477 7.06149C21.6768 6.82811 21.2912 6.70847 20.8896 6.70847C20.8075 6.70847 20.6022 6.75347 20.2432 6.91567C19.908 7.06709 19.5337 7.27548 19.1384 7.50314C19.0642 7.54589 18.9886 7.58969 18.9124 7.63384C18.5999 7.81485 18.277 8.00198 17.9911 8.14928C17.8107 8.24219 17.6227 8.33116 17.4411 8.39846C17.2734 8.46058 17.0415 8.53126 16.7931 8.53126C16.3594 8.53126 16.0553 8.49191 15.7634 8.45414C15.7096 8.44718 15.6562 8.44025 15.6024 8.43364C15.2656 8.39226 14.8265 8.3491 14.0001 8.3491C13.1739 8.3491 12.7346 8.39226 12.3978 8.43364C12.3442 8.44025 12.2907 8.44717 12.2368 8.45413C11.945 8.49191 11.641 8.53126 11.2071 8.53126C10.9588 8.53126 10.7269 8.46057 10.5591 8.39845C10.3775 8.33115 10.1895 8.24217 10.0092 8.14925C9.72328 8.00194 9.40033 7.8148 9.08797 7.6338C9.01175 7.58963 8.93615 7.54582 8.86188 7.50305C8.46653 7.27538 8.09217 7.06699 7.75704 6.91556C7.39802 6.75333 7.19277 6.70834 7.11067 6.70834C6.70907 6.70834 6.32342 6.82797 6.05252 7.06136C5.80584 7.27388 5.56506 7.6559 5.56506 8.38543V10.571C5.56583 10.7312 5.58863 11.0097 5.63997 11.2759C5.76396 11.1683 5.89528 11.0634 6.03424 10.9614C6.42377 10.6754 6.97139 10.7593 7.2574 11.1488C7.54341 11.5383 7.4595 12.086 7.06997 12.3719C6.78915 12.5782 6.5654 12.7896 6.38554 13.0022C5.88261 13.5965 5.66941 14.2648 5.58718 15.0178C5.55177 15.3419 5.54128 15.6582 5.54138 15.9804C5.80058 15.93 6.0577 15.8958 6.28506 15.8958C6.76832 15.8958 7.16006 16.2876 7.16006 16.7708C7.16006 17.2541 6.76832 17.6458 6.28506 17.6458C6.16142 17.6458 5.92141 17.6801 5.57385 17.765C5.60507 18.2292 5.71864 18.6533 5.90366 19.0404C6.26581 18.9079 6.65589 18.8125 7.03762 18.8125C7.52088 18.8125 7.91262 19.2043 7.91262 19.6875C7.91262 20.1192 7.60006 20.4778 7.18892 20.5494Z" fill="black" />
    </svg>